999
"DXF R12 Output" (www.mydxf.blogspot.com)
 0 
SECTION
 2 
HEADER
 9 
$ACADVER
 1 
AC1009
 9 
$EXTMIN
 10 
 0 
 20 
 0 
 9 
$EXTMAX
 10 
 8.5 
 20 
 11 
 0 
ENDSEC
 0 
SECTION
 2 
ENTITIES
0
LINE
8
Layer 1
10
30.088400
20
18.364800
11
31.580645
21
18.218287
0
LINE
8
Layer 1
10
31.580645
20
18.218287
11
32.906210
21
17.780072
0
LINE
8
Layer 1
10
32.906210
20
17.780072
11
34.016796
21
17.075289
0
LINE
8
Layer 1
10
34.016796
20
17.075289
11
34.861480
21
16.078802
0
LINE
8
Layer 1
10
34.861480
20
16.078802
11
35.413797
21
14.802850
0
LINE
8
Layer 1
10
35.413797
20
14.802850
11
35.597021
21
13.260992
0
LINE
8
Layer 1
10
35.597021
20
13.260992
11
35.597000
21
5.974330
0
LINE
8
Layer 1
10
35.597000
20
5.974330
11
35.418737
21
4.158630
0
LINE
8
Layer 1
10
35.418737
20
4.158630
11
34.885272
21
2.672330
0
LINE
8
Layer 1
10
34.885272
20
2.672330
11
34.041582
21
1.543221
0
LINE
8
Layer 1
10
34.041582
20
1.543221
11
32.930002
21
0.743520
0
LINE
8
Layer 1
10
32.930002
20
0.743520
11
31.628586
21
0.286453
0
LINE
8
Layer 1
10
31.628586
20
0.286453
11
30.162462
21
0.134979
0
LINE
8
Layer 1
10
30.162462
20
0.134979
11
24.905200
21
0.134986
0
LINE
8
Layer 1
10
24.905200
20
0.134986
11
23.458261
21
0.274223
0
LINE
8
Layer 1
10
23.458261
20
0.274223
11
22.164120
21
0.693256
0
LINE
8
Layer 1
10
22.164120
20
0.693256
11
21.072714
21
1.398039
0
LINE
8
Layer 1
10
21.072714
20
1.398039
11
20.235310
21
2.394526
0
LINE
8
Layer 1
10
20.235310
20
2.394526
11
19.701844
21
3.664524
0
LINE
8
Layer 1
10
19.701844
20
3.664524
11
19.523582
21
5.188526
0
LINE
8
Layer 1
10
19.523582
20
5.188526
11
19.523600
21
6.228330
0
LINE
8
Layer 1
10
19.523600
20
6.228330
11
20.259100
21
6.228330
0
LINE
8
Layer 1
10
20.259100
20
6.228330
11
20.259100
21
5.162060
0
LINE
8
Layer 1
10
20.259100
20
5.162060
11
20.341493
21
4.161028
0
LINE
8
Layer 1
10
20.341493
20
4.161028
11
20.588837
21
3.289475
0
LINE
8
Layer 1
10
20.588837
20
3.289475
11
21.001380
21
2.547898
0
LINE
8
Layer 1
10
21.001380
20
2.547898
11
21.579370
21
1.936790
0
LINE
8
Layer 1
10
21.579370
20
1.936790
11
22.282829
21
1.459093
0
LINE
8
Layer 1
10
22.282829
20
1.459093
11
23.071617
21
1.117574
0
LINE
8
Layer 1
10
23.071617
20
1.117574
11
24.905180
21
0.844060
0
LINE
8
Layer 1
10
24.905180
20
0.844060
11
30.162500
21
0.844068
0
LINE
8
Layer 1
10
30.162500
20
0.844068
11
31.413315
21
0.971068
0
LINE
8
Layer 1
10
31.413315
20
0.971068
11
32.525230
21
1.352067
0
LINE
8
Layer 1
10
32.525230
20
1.352067
11
33.484014
21
2.036675
0
LINE
8
Layer 1
10
33.484014
20
2.036675
11
34.226500
21
3.026877
0
LINE
8
Layer 1
10
34.226500
20
3.026877
11
34.702749
21
4.322343
0
LINE
8
Layer 1
10
34.702749
20
4.322343
11
34.861499
21
5.921417
0
LINE
8
Layer 1
10
34.861499
20
5.921417
11
34.861500
21
10.263200
0
LINE
8
Layer 1
10
34.861500
20
10.263200
11
34.430200
21
10.263200
0
LINE
8
Layer 1
10
34.430200
20
10.263200
11
34.887929
21
11.075470
0
LINE
8
Layer 1
10
34.887929
20
11.075470
11
34.704044
21
10.319755
0
LINE
8
Layer 1
10
34.704044
20
10.319755
11
34.202659
21
9.577930
0
LINE
8
Layer 1
10
34.202659
20
9.577930
11
33.446944
21
8.910850
0
LINE
8
Layer 1
10
33.446944
20
8.910850
11
32.451119
21
8.384660
0
LINE
8
Layer 1
10
32.451119
20
8.384660
11
31.296215
21
8.060877
0
LINE
8
Layer 1
10
31.296215
20
8.060877
11
30.014309
21
7.953390
0
LINE
8
Layer 1
10
30.014309
20
7.953390
11
24.706800
21
7.953410
0
LINE
8
Layer 1
10
24.706800
20
7.953410
11
23.252586
21
8.086694
0
LINE
8
Layer 1
10
23.252586
20
8.086694
11
21.939260
21
8.487868
0
LINE
8
Layer 1
10
21.939260
20
8.487868
11
20.841572
21
9.186367
0
LINE
8
Layer 1
10
20.841572
20
9.186367
11
19.983990
21
10.162678
0
LINE
8
Layer 1
10
19.983990
20
10.162678
11
19.450525
21
11.407212
0
LINE
8
Layer 1
10
19.450525
20
11.407212
11
19.272262
21
12.903758
0
LINE
8
Layer 1
10
19.272262
20
12.903758
11
19.272200
21
13.385300
0
LINE
8
Layer 1
10
19.272200
20
13.385300
11
19.450463
21
14.863988
0
LINE
8
Layer 1
10
19.450463
20
14.863988
11
19.983928
21
16.102570
0
LINE
8
Layer 1
10
19.983928
20
16.102570
11
20.847793
21
17.099057
0
LINE
8
Layer 1
10
20.847793
20
17.099057
11
21.965658
21
17.803840
0
LINE
8
Layer 1
10
21.965658
20
17.803840
11
23.305112
21
18.222873
0
LINE
8
Layer 1
10
23.305112
20
18.222873
11
24.783468
21
18.362110
0
LINE
8
Layer 1
10
24.783468
20
18.362110
11
30.091000
21
18.362100
0
LINE
8
Layer 1
10
30.091000
20
18.362100
11
30.088400
21
18.364800
0
LINE
8
Layer 1
10
24.807300
20
17.626600
11
22.922145
21
17.360363
0
LINE
8
Layer 1
10
22.922145
20
17.360363
11
22.107559
21
17.027195
0
LINE
8
Layer 1
10
22.107559
20
17.027195
11
21.378300
21
16.560330
0
LINE
8
Layer 1
10
21.378300
20
16.560330
11
20.789479
21
15.961546
0
LINE
8
Layer 1
10
20.789479
20
15.961546
11
20.368584
21
15.232784
0
LINE
8
Layer 1
10
20.368584
20
15.232784
11
20.115865
21
14.374046
0
LINE
8
Layer 1
10
20.115865
20
14.374046
11
20.031570
21
13.385330
0
LINE
8
Layer 1
10
20.031570
20
13.385330
11
20.031600
21
12.903800
0
LINE
8
Layer 1
10
20.031600
20
12.903800
11
20.115895
21
11.915084
0
LINE
8
Layer 1
10
20.115895
20
11.915084
11
20.368613
21
11.056346
0
LINE
8
Layer 1
10
20.368613
20
11.056346
11
20.789507
21
10.327585
0
LINE
8
Layer 1
10
20.789507
20
10.327585
11
21.378330
21
9.728800
0
LINE
8
Layer 1
10
21.378330
20
9.728800
11
22.104569
21
9.273883
0
LINE
8
Layer 1
10
22.104569
20
9.273883
11
22.913903
21
8.948942
0
LINE
8
Layer 1
10
22.913903
20
8.948942
11
24.780870
21
8.688990
0
LINE
8
Layer 1
10
24.780870
20
8.688990
11
30.061900
21
8.688950
0
LINE
8
Layer 1
10
30.061900
20
8.688950
11
31.978805
21
8.948903
0
LINE
8
Layer 1
10
31.978805
20
8.948903
11
32.794382
21
9.273843
0
LINE
8
Layer 1
10
32.794382
20
9.273843
11
33.514710
21
9.728760
0
LINE
8
Layer 1
10
33.514710
20
9.728760
11
34.103531
21
10.327544
0
LINE
8
Layer 1
10
34.103531
20
10.327544
11
34.524426
21
11.056305
0
LINE
8
Layer 1
10
34.524426
20
11.056305
11
34.777145
21
11.915044
0
LINE
8
Layer 1
10
34.777145
20
11.915044
11
34.861440
21
12.903760
0
LINE
8
Layer 1
10
34.861440
20
12.903760
11
34.861500
21
13.385300
0
LINE
8
Layer 1
10
34.861500
20
13.385300
11
34.777205
21
14.374016
0
LINE
8
Layer 1
10
34.777205
20
14.374016
11
34.524487
21
15.232754
0
LINE
8
Layer 1
10
34.524487
20
15.232754
11
34.103593
21
15.961515
0
LINE
8
Layer 1
10
34.103593
20
15.961515
11
33.514770
21
16.560300
0
LINE
8
Layer 1
10
33.514770
20
16.560300
11
32.794443
21
17.027165
0
LINE
8
Layer 1
10
32.794443
20
17.027165
11
31.978866
21
17.360333
0
LINE
8
Layer 1
10
31.978866
20
17.360333
11
30.061960
21
17.626570
0
LINE
8
Layer 1
10
30.061960
20
17.626570
11
24.804700
21
17.626600
0
LINE
8
Layer 1
10
24.804700
20
17.626600
11
24.807300
21
17.626600
0
LINE
8
Layer 1
10
5.384260
20
0.209069
11
3.993213
21
0.336069
0
LINE
8
Layer 1
10
3.993213
20
0.336069
11
2.717260
21
0.717068
0
LINE
8
Layer 1
10
2.717260
20
0.717068
11
1.612294
21
1.364304
0
LINE
8
Layer 1
10
1.612294
20
1.364304
11
0.735530
21
2.291338
0
LINE
8
Layer 1
10
0.735530
20
2.291338
11
0.183213
21
3.478325
0
LINE
8
Layer 1
10
0.183213
20
3.478325
11
-0.000011
21
4.905418
0
LINE
8
Layer 1
10
-0.000011
20
4.905418
11
0.000000
21
6.225690
0
LINE
8
Layer 1
10
0.000000
20
6.225690
11
0.761999
21
6.225690
0
LINE
8
Layer 1
10
0.761999
20
6.225690
11
0.761999
21
4.905420
0
LINE
8
Layer 1
10
0.761999
20
4.905420
11
0.846294
21
3.966400
0
LINE
8
Layer 1
10
0.846294
20
3.966400
11
1.099012
21
3.153881
0
LINE
8
Layer 1
10
1.099012
20
3.153881
11
1.519906
21
2.468362
0
LINE
8
Layer 1
10
1.519906
20
2.468362
11
2.108729
21
1.910340
0
LINE
8
Layer 1
10
2.108729
20
1.910340
11
3.618838
21
1.186375
0
LINE
8
Layer 1
10
3.618838
20
1.186375
11
5.410729
21
0.944612
0
LINE
8
Layer 1
10
5.410729
20
0.944612
11
10.234100
21
0.944610
0
LINE
8
Layer 1
10
10.234100
20
0.944610
11
11.376769
21
1.046144
0
LINE
8
Layer 1
10
11.376769
20
1.046144
11
12.469830
21
1.352068
0
LINE
8
Layer 1
10
12.469830
20
1.352068
11
13.453747
21
1.891817
0
LINE
8
Layer 1
10
13.453747
20
1.891817
11
14.221370
21
2.645878
0
LINE
8
Layer 1
10
14.221370
20
2.645878
11
14.735653
21
3.636080
0
LINE
8
Layer 1
10
14.735653
20
3.636080
11
14.906640
21
4.828688
0
LINE
8
Layer 1
10
14.906640
20
4.828688
11
14.906600
21
5.286420
0
LINE
8
Layer 1
10
14.906600
20
5.286420
11
14.824207
21
6.213122
0
LINE
8
Layer 1
10
14.824207
20
6.213122
11
14.576863
21
7.012824
0
LINE
8
Layer 1
10
14.576863
20
7.012824
11
14.164320
21
7.685526
0
LINE
8
Layer 1
10
14.164320
20
7.685526
11
13.586330
21
8.231230
0
LINE
8
Layer 1
10
13.586330
20
8.231230
11
12.870963
21
8.653364
0
LINE
8
Layer 1
10
12.870963
20
8.653364
11
12.018673
21
8.955195
0
LINE
8
Layer 1
10
12.018673
20
8.955195
11
9.903330
21
9.196958
0
LINE
8
Layer 1
10
9.903330
20
9.196958
11
4.291540
21
9.196950
0
LINE
8
Layer 1
10
4.291540
20
9.196950
11
4.291540
21
9.932490
0
LINE
8
Layer 1
10
4.291540
20
9.932490
11
13.305900
21
17.272000
0
LINE
8
Layer 1
10
13.305900
20
17.272000
11
13.305900
21
17.399000
0
LINE
8
Layer 1
10
13.305900
20
17.399000
11
0.507999
21
17.399000
0
LINE
8
Layer 1
10
0.507999
20
17.399000
11
0.507999
21
18.134600
0
LINE
8
Layer 1
10
0.507999
20
18.134600
11
14.650000
21
18.134600
0
LINE
8
Layer 1
10
14.650000
20
18.134600
11
14.650000
21
17.372600
0
LINE
8
Layer 1
10
14.650000
20
17.372600
11
5.638260
21
10.059500
0
LINE
8
Layer 1
10
5.638260
20
10.059500
11
5.638260
21
9.678490
0
LINE
8
Layer 1
10
5.638260
20
9.678490
11
5.003261
21
9.906031
0
LINE
8
Layer 1
10
5.003261
20
9.906031
11
9.980070
21
9.906040
0
LINE
8
Layer 1
10
9.980070
20
9.906040
11
11.251018
21
9.831585
0
LINE
8
Layer 1
10
11.251018
20
9.831585
11
12.372891
21
9.608054
0
LINE
8
Layer 1
10
12.372891
20
9.608054
11
13.345441
21
9.235198
0
LINE
8
Layer 1
10
13.345441
20
9.235198
11
14.168420
21
8.712770
0
LINE
8
Layer 1
10
14.168420
20
8.712770
11
14.823222
21
8.060904
0
LINE
8
Layer 1
10
14.823222
20
8.060904
11
15.291244
21
7.272116
0
LINE
8
Layer 1
10
15.291244
20
7.272116
11
15.572240
21
6.346405
0
LINE
8
Layer 1
10
15.572240
20
6.346405
11
15.665960
21
5.283770
0
LINE
8
Layer 1
10
15.665960
20
5.283770
11
15.666000
21
4.852500
0
LINE
8
Layer 1
10
15.666000
20
4.852500
11
15.475500
21
3.462446
0
LINE
8
Layer 1
10
15.475500
20
3.462446
11
14.904001
21
2.288690
0
LINE
8
Layer 1
10
14.904001
20
2.288690
11
14.040136
21
1.374555
0
LINE
8
Layer 1
10
14.040136
20
1.374555
11
12.922271
21
0.714420
0
LINE
8
Layer 1
10
12.922271
20
0.714420
11
11.626474
21
0.333421
0
LINE
8
Layer 1
10
11.626474
20
0.333421
11
10.231461
21
0.206421
0
LINE
8
Layer 1
10
10.231461
20
0.206421
11
5.381620
21
0.206423
0
LINE
8
Layer 1
10
5.381620
20
0.206423
11
5.384260
21
0.209069
0
LINE
8
Layer 1
10
67.492500
20
0.082069
11
65.613963
21
0.228582
0
LINE
8
Layer 1
10
65.613963
20
0.228582
11
63.989420
21
0.666797
0
LINE
8
Layer 1
10
63.989420
20
0.666797
11
62.655591
21
1.408952
0
LINE
8
Layer 1
10
62.655591
20
1.408952
11
61.653150
21
2.468607
0
LINE
8
Layer 1
10
61.653150
20
2.468607
11
61.024435
21
3.845763
0
LINE
8
Layer 1
10
61.024435
20
3.845763
11
60.814422
21
5.540417
0
LINE
8
Layer 1
10
60.814422
20
5.540417
11
60.814400
21
6.125140
0
LINE
8
Layer 1
10
60.814400
20
6.125140
11
66.502900
21
6.125140
0
LINE
8
Layer 1
10
66.502900
20
6.125140
11
66.502900
21
5.540420
0
LINE
8
Layer 1
10
66.502900
20
5.540420
11
66.629900
21
4.905421
0
LINE
8
Layer 1
10
66.629900
20
4.905421
11
67.037358
21
4.601151
0
LINE
8
Layer 1
10
67.037358
20
4.601151
11
67.799357
21
4.524422
0
LINE
8
Layer 1
10
67.799357
20
4.524422
11
72.318500
21
4.524420
0
LINE
8
Layer 1
10
72.318500
20
4.524420
11
73.080499
21
4.624962
0
LINE
8
Layer 1
10
73.080499
20
4.624962
11
73.511769
21
4.979503
0
LINE
8
Layer 1
10
73.511769
20
4.979503
11
73.665227
21
5.564231
0
LINE
8
Layer 1
10
73.665227
20
5.564231
11
73.665200
21
5.945230
0
LINE
8
Layer 1
10
73.665200
20
5.945230
11
73.576234
21
6.396013
0
LINE
8
Layer 1
10
73.576234
20
6.396013
11
73.310659
21
6.733687
0
LINE
8
Layer 1
10
73.310659
20
6.733687
11
72.891295
21
6.943369
0
LINE
8
Layer 1
10
72.891295
20
6.943369
11
72.344931
21
7.014145
0
LINE
8
Layer 1
10
72.344931
20
7.014145
11
64.066100
21
7.014140
0
LINE
8
Layer 1
10
64.066100
20
7.014140
11
64.066100
21
10.670700
0
LINE
8
Layer 1
10
64.066100
20
10.670700
11
68.815360
21
13.006970
0
LINE
8
Layer 1
10
68.815360
20
13.006970
11
68.815400
21
13.414400
0
LINE
8
Layer 1
10
68.815400
20
13.414400
11
61.655800
21
13.414400
0
LINE
8
Layer 1
10
61.655800
20
13.414400
11
61.655800
21
18.134600
0
LINE
8
Layer 1
10
61.655800
20
18.134600
11
78.237200
21
18.134600
0
LINE
8
Layer 1
10
78.237200
20
18.134600
11
78.237200
21
13.512300
0
LINE
8
Layer 1
10
78.237200
20
13.512300
11
73.032850
21
10.898220
0
LINE
8
Layer 1
10
73.032850
20
10.898220
11
73.032800
21
9.858410
0
LINE
8
Layer 1
10
73.032800
20
9.858410
11
68.005720
21
10.519868
0
LINE
8
Layer 1
10
68.005720
20
10.519868
11
74.099100
21
10.519900
0
LINE
8
Layer 1
10
74.099100
20
10.519900
11
75.264463
21
10.443543
0
LINE
8
Layer 1
10
75.264463
20
10.443543
11
76.296130
21
10.214637
0
LINE
8
Layer 1
10
76.296130
20
10.214637
11
77.194349
21
9.833430
0
LINE
8
Layer 1
10
77.194349
20
9.833430
11
77.959370
21
9.300170
0
LINE
8
Layer 1
10
77.959370
20
9.300170
11
78.580975
21
8.625938
0
LINE
8
Layer 1
10
78.580975
20
8.625938
11
79.024978
21
7.821482
0
LINE
8
Layer 1
10
79.024978
20
7.821482
11
79.291379
21
6.886553
0
LINE
8
Layer 1
10
79.291379
20
6.886553
11
79.380180
21
5.820900
0
LINE
8
Layer 1
10
79.380180
20
5.820900
11
79.380200
21
5.466330
0
LINE
8
Layer 1
10
79.380200
20
5.466330
11
79.183417
21
3.854027
0
LINE
8
Layer 1
10
79.183417
20
3.854027
11
78.591743
21
2.521520
0
LINE
8
Layer 1
10
78.591743
20
2.521520
11
77.627339
21
1.467486
0
LINE
8
Layer 1
10
77.627339
20
1.467486
11
76.305743
21
0.693250
0
LINE
8
Layer 1
10
76.305743
20
0.693250
11
74.642177
21
0.236183
0
LINE
8
Layer 1
10
74.642177
20
0.236183
11
72.649203
21
0.084709
0
LINE
8
Layer 1
10
72.649203
20
0.084709
11
67.495100
21
0.084715
0
LINE
8
Layer 1
10
67.495100
20
0.084715
11
67.492500
21
0.082069
0
LINE
8
Layer 1
10
46.265000
20
0.082069
11
44.388281
21
0.206051
0
LINE
8
Layer 1
10
44.388281
20
0.206051
11
42.742740
21
0.577832
0
LINE
8
Layer 1
10
42.742740
20
0.577832
11
41.328379
21
1.197164
0
LINE
8
Layer 1
10
41.328379
20
1.197164
11
40.145200
21
2.063799
0
LINE
8
Layer 1
10
40.145200
20
2.063799
11
39.223002
21
3.204273
0
LINE
8
Layer 1
10
39.223002
20
3.204273
11
38.563983
21
4.621321
0
LINE
8
Layer 1
10
38.563983
20
4.621321
11
38.168389
21
6.314696
0
LINE
8
Layer 1
10
38.168389
20
6.314696
11
38.036470
21
8.284149
0
LINE
8
Layer 1
10
38.036470
20
8.284149
11
38.036500
21
10.162700
0
LINE
8
Layer 1
10
38.036500
20
10.162700
11
38.168047
21
12.142608
0
LINE
8
Layer 1
10
38.168047
20
12.142608
11
38.563021
21
13.843710
0
LINE
8
Layer 1
10
38.563021
20
13.843710
11
39.221916
21
15.266007
0
LINE
8
Layer 1
10
39.221916
20
15.266007
11
40.145230
21
16.409500
0
LINE
8
Layer 1
10
40.145230
20
16.409500
11
41.326924
21
17.286550
0
LINE
8
Layer 1
10
41.326924
20
17.286550
11
42.740790
21
17.913322
0
LINE
8
Layer 1
10
42.740790
20
17.913322
11
44.386826
21
18.289569
0
LINE
8
Layer 1
10
44.386826
20
18.289569
11
46.265030
21
18.415040
0
LINE
8
Layer 1
10
46.265030
20
18.415040
11
52.358300
21
18.415000
0
LINE
8
Layer 1
10
52.358300
20
18.415000
11
54.631070
21
18.212263
0
LINE
8
Layer 1
10
54.631070
20
18.212263
11
56.522840
21
17.602730
0
LINE
8
Layer 1
10
56.522840
20
17.602730
11
58.052791
21
16.560934
0
LINE
8
Layer 1
10
58.052791
20
16.560934
11
59.189840
21
15.062730
0
LINE
8
Layer 1
10
59.189840
20
15.062730
11
59.601143
21
14.139045
0
LINE
8
Layer 1
10
59.601143
20
14.139045
11
59.894623
21
13.094562
0
LINE
8
Layer 1
10
59.894623
20
13.094562
11
60.129110
21
10.644190
0
LINE
8
Layer 1
10
60.129110
20
10.644190
11
60.129100
21
10.009200
0
LINE
8
Layer 1
10
60.129100
20
10.009200
11
54.213100
21
10.009200
0
LINE
8
Layer 1
10
54.213100
20
10.009200
11
54.213100
21
10.644200
0
LINE
8
Layer 1
10
54.213100
20
10.644200
11
53.985559
21
12.268740
0
LINE
8
Layer 1
10
53.985559
20
12.268740
11
53.719323
21
12.770455
0
LINE
8
Layer 1
10
53.719323
20
12.770455
11
53.324102
21
13.107468
0
LINE
8
Layer 1
10
53.324102
20
13.107468
11
52.809819
21
13.317150
0
LINE
8
Layer 1
10
52.809819
20
13.317150
11
52.130832
21
13.387926
0
LINE
8
Layer 1
10
52.130832
20
13.387926
11
46.595700
21
13.387900
0
LINE
8
Layer 1
10
46.595700
20
13.387900
11
45.536046
21
13.197400
0
LINE
8
Layer 1
10
45.536046
20
13.197400
11
44.793890
21
12.625901
0
LINE
8
Layer 1
10
44.793890
20
12.625901
11
44.374857
21
11.647607
0
LINE
8
Layer 1
10
44.374857
20
11.647607
11
44.235620
21
10.189091
0
LINE
8
Layer 1
10
44.235620
20
10.189091
11
44.235600
21
8.233870
0
LINE
8
Layer 1
10
44.235600
20
8.233870
11
44.374837
21
6.811404
0
LINE
8
Layer 1
10
44.374837
20
6.811404
11
44.793870
21
5.847330
0
LINE
8
Layer 1
10
44.793870
20
5.847330
11
45.536025
21
5.295013
0
LINE
8
Layer 1
10
45.536025
20
5.295013
11
46.595680
21
5.111789
0
LINE
8
Layer 1
10
46.595680
20
5.111789
11
52.130800
21
5.111790
0
LINE
8
Layer 1
10
52.130800
20
5.111790
11
52.809786
21
5.175290
0
LINE
8
Layer 1
10
52.809786
20
5.175290
11
53.324070
21
5.365790
0
LINE
8
Layer 1
10
53.324070
20
5.365790
11
53.717306
21
5.702803
0
LINE
8
Layer 1
10
53.717306
20
5.702803
11
53.985527
21
6.204518
0
LINE
8
Layer 1
10
53.985527
20
6.204518
11
54.213068
21
7.829058
0
LINE
8
Layer 1
10
54.213068
20
7.829058
11
54.213100
21
8.337060
0
LINE
8
Layer 1
10
54.213100
20
8.337060
11
60.129100
21
8.337060
0
LINE
8
Layer 1
10
60.129100
20
8.337060
11
60.129100
21
7.855520
0
LINE
8
Layer 1
10
60.129100
20
7.855520
11
59.894613
21
5.405151
0
LINE
8
Layer 1
10
59.894613
20
5.405151
11
59.601133
21
4.360667
0
LINE
8
Layer 1
10
59.601133
20
4.360667
11
59.189830
21
3.436980
0
LINE
8
Layer 1
10
59.189830
20
3.436980
11
58.072960
21
1.938778
0
LINE
8
Layer 1
10
58.072960
20
1.938778
11
57.361851
21
1.360829
0
LINE
8
Layer 1
10
57.361851
20
1.360829
11
56.549290
21
0.896980
0
LINE
8
Layer 1
10
56.549290
20
0.896980
11
54.638670
21
0.287447
0
LINE
8
Layer 1
10
54.638670
20
0.287447
11
52.360940
21
0.084710
0
LINE
8
Layer 1
10
52.360940
20
0.084710
11
46.267600
21
0.084715
0
LINE
8
Layer 1
10
46.267600
20
0.084715
11
46.265000
21
0.082069
 0 
ENDSEC
 0 
EOF