999
"DXF R12 Output" (www.mydxf.blogspot.com)
 0 
SECTION
 2 
HEADER
 9 
$ACADVER
 1 
AC1009
 9 
$EXTMIN
 10 
 0 
 20 
 0 
 9 
$EXTMAX
 10 
 8.5 
 20 
 11 
 0 
ENDSEC
 0 
SECTION
 2 
ENTITIES
0
POLYLINE
8
Layer 1
62
7
70
1
10
0.000000
20
0.000000
66
1
0
VERTEX
8
Layer 1
10
30.088379
20
18.364754
70
0
0
VERTEX
8
Layer 1
10
31.580627
20
18.218241
70
0
0
VERTEX
8
Layer 1
10
32.906188
20
17.780026
70
0
0
VERTEX
8
Layer 1
10
34.016775
20
17.075243
70
0
0
VERTEX
8
Layer 1
10
34.861456
20
16.078757
70
0
0
VERTEX
8
Layer 1
10
35.413773
20
14.802806
70
0
0
VERTEX
8
Layer 1
10
35.596997
20
13.260948
70
0
0
VERTEX
8
Layer 1
10
35.596997
20
5.974332
70
0
0
VERTEX
8
Layer 1
10
35.418734
20
4.158632
70
0
0
VERTEX
8
Layer 1
10
34.885269
20
2.672337
70
0
0
VERTEX
8
Layer 1
10
34.041580
20
1.543229
70
0
0
VERTEX
8
Layer 1
10
32.930000
20
0.743527
70
0
0
VERTEX
8
Layer 1
10
31.628583
20
0.286459
70
0
0
VERTEX
8
Layer 1
10
30.162462
20
0.134986
70
0
0
VERTEX
8
Layer 1
10
24.905198
20
0.134986
70
0
0
VERTEX
8
Layer 1
10
23.458260
20
0.274222
70
0
0
VERTEX
8
Layer 1
10
22.164118
20
0.693256
70
0
0
VERTEX
8
Layer 1
10
21.072713
20
1.398039
70
0
0
VERTEX
8
Layer 1
10
20.235308
20
2.394524
70
0
0
VERTEX
8
Layer 1
10
19.701842
20
3.664523
70
0
0
VERTEX
8
Layer 1
10
19.523580
20
5.188521
70
0
0
VERTEX
8
Layer 1
10
19.523580
20
6.228332
70
0
0
VERTEX
8
Layer 1
10
20.259120
20
6.228332
70
0
0
VERTEX
8
Layer 1
10
20.259120
20
5.162063
70
0
0
VERTEX
8
Layer 1
10
20.341513
20
4.161029
70
0
0
VERTEX
8
Layer 1
10
20.588857
20
3.289476
70
0
0
VERTEX
8
Layer 1
10
21.001400
20
2.547900
70
0
0
VERTEX
8
Layer 1
10
21.579389
20
1.936796
70
0
0
VERTEX
8
Layer 1
10
22.282850
20
1.459100
70
0
0
VERTEX
8
Layer 1
10
23.071638
20
1.117581
70
0
0
VERTEX
8
Layer 1
10
24.905198
20
0.844068
70
0
0
VERTEX
8
Layer 1
10
30.162462
20
0.844068
70
0
0
VERTEX
8
Layer 1
10
31.413278
20
0.971068
70
0
0
VERTEX
8
Layer 1
10
32.525188
20
1.352067
70
0
0
VERTEX
8
Layer 1
10
33.483971
20
2.036676
70
0
0
VERTEX
8
Layer 1
10
34.226457
20
3.026878
70
0
0
VERTEX
8
Layer 1
10
34.702706
20
4.322342
70
0
0
VERTEX
8
Layer 1
10
34.861456
20
5.921416
70
0
0
VERTEX
8
Layer 1
10
34.861456
20
10.263223
70
0
0
VERTEX
8
Layer 1
10
34.430186
20
10.263223
70
0
0
VERTEX
8
Layer 1
10
34.887914
20
11.075493
70
0
0
VERTEX
8
Layer 1
10
34.704029
20
10.319777
70
0
0
VERTEX
8
Layer 1
10
34.202644
20
9.577953
70
0
0
VERTEX
8
Layer 1
10
33.446929
20
8.910873
70
0
0
VERTEX
8
Layer 1
10
32.451105
20
8.384684
70
0
0
VERTEX
8
Layer 1
10
31.296200
20
8.060900
70
0
0
VERTEX
8
Layer 1
10
30.014296
20
7.953413
70
0
0
VERTEX
8
Layer 1
10
24.706761
20
7.953413
70
0
0
VERTEX
8
Layer 1
10
23.252546
20
8.086697
70
0
0
VERTEX
8
Layer 1
10
21.939222
20
8.487871
70
0
0
VERTEX
8
Layer 1
10
20.841534
20
9.186370
70
0
0
VERTEX
8
Layer 1
10
19.983954
20
10.162681
70
0
0
VERTEX
8
Layer 1
10
19.450489
20
11.407214
70
0
0
VERTEX
8
Layer 1
10
19.272226
20
12.903761
70
0
0
VERTEX
8
Layer 1
10
19.272226
20
13.385302
70
0
0
VERTEX
8
Layer 1
10
19.450489
20
14.863991
70
0
0
VERTEX
8
Layer 1
10
19.983954
20
16.102570
70
0
0
VERTEX
8
Layer 1
10
20.847817
20
17.099055
70
0
0
VERTEX
8
Layer 1
10
21.965681
20
17.803838
70
0
0
VERTEX
8
Layer 1
10
23.305132
20
18.222872
70
0
0
VERTEX
8
Layer 1
10
24.783490
20
18.362109
70
0
0
VERTEX
8
Layer 1
10
30.091025
20
18.362109
70
0
0
VERTEX
8
Layer 1
10
30.088379
20
18.364754
70
0
0
SEQEND
8
Layer 1
0
POLYLINE
8
Layer 1
62
7
70
1
10
0.000000
20
0.000000
66
1
0
VERTEX
8
Layer 1
10
24.807302
20
17.626568
70
0
0
VERTEX
8
Layer 1
10
22.922148
20
17.360331
70
0
0
VERTEX
8
Layer 1
10
22.107563
20
17.027163
70
0
0
VERTEX
8
Layer 1
10
21.378306
20
16.560298
70
0
0
VERTEX
8
Layer 1
10
20.789485
20
15.961514
70
0
0
VERTEX
8
Layer 1
10
20.368592
20
15.232753
70
0
0
VERTEX
8
Layer 1
10
20.115873
20
14.374016
70
0
0
VERTEX
8
Layer 1
10
20.031579
20
13.385302
70
0
0
VERTEX
8
Layer 1
10
20.031579
20
12.903761
70
0
0
VERTEX
8
Layer 1
10
20.115873
20
11.915048
70
0
0
VERTEX
8
Layer 1
10
20.368592
20
11.056310
70
0
0
VERTEX
8
Layer 1
10
20.789485
20
10.327550
70
0
0
VERTEX
8
Layer 1
10
21.378306
20
9.728765
70
0
0
VERTEX
8
Layer 1
10
22.104545
20
9.273848
70
0
0
VERTEX
8
Layer 1
10
22.913880
20
8.948907
70
0
0
VERTEX
8
Layer 1
10
24.780844
20
8.688954
70
0
0
VERTEX
8
Layer 1
10
30.061920
20
8.688954
70
0
0
VERTEX
8
Layer 1
10
31.978824
20
8.948907
70
0
0
VERTEX
8
Layer 1
10
32.794401
20
9.273848
70
0
0
VERTEX
8
Layer 1
10
33.514729
20
9.728765
70
0
0
VERTEX
8
Layer 1
10
34.103550
20
10.327550
70
0
0
VERTEX
8
Layer 1
10
34.524443
20
11.056310
70
0
0
VERTEX
8
Layer 1
10
34.777162
20
11.915048
70
0
0
VERTEX
8
Layer 1
10
34.861456
20
12.903761
70
0
0
VERTEX
8
Layer 1
10
34.861456
20
13.385302
70
0
0
VERTEX
8
Layer 1
10
34.777162
20
14.374016
70
0
0
VERTEX
8
Layer 1
10
34.524443
20
15.232753
70
0
0
VERTEX
8
Layer 1
10
34.103550
20
15.961514
70
0
0
VERTEX
8
Layer 1
10
33.514729
20
16.560298
70
0
0
VERTEX
8
Layer 1
10
32.794401
20
17.027163
70
0
0
VERTEX
8
Layer 1
10
31.978824
20
17.360331
70
0
0
VERTEX
8
Layer 1
10
30.061920
20
17.626568
70
0
0
VERTEX
8
Layer 1
10
24.804656
20
17.626568
70
0
0
VERTEX
8
Layer 1
10
24.807302
20
17.626568
70
0
0
SEQEND
8
Layer 1
0
POLYLINE
8
Layer 1
62
7
70
1
10
0.000000
20
0.000000
66
1
0
VERTEX
8
Layer 1
10
5.384264
20
0.209069
70
0
0
VERTEX
8
Layer 1
10
3.993219
20
0.336069
70
0
0
VERTEX
8
Layer 1
10
2.717267
20
0.717068
70
0
0
VERTEX
8
Layer 1
10
1.612303
20
1.364304
70
0
0
VERTEX
8
Layer 1
10
0.735541
20
2.291337
70
0
0
VERTEX
8
Layer 1
10
0.183224
20
3.478323
70
0
0
VERTEX
8
Layer 1
10
0.000000
20
4.905417
70
0
0
VERTEX
8
Layer 1
10
0.000000
20
6.225686
70
0
0
VERTEX
8
Layer 1
10
0.761999
20
6.225686
70
0
0
VERTEX
8
Layer 1
10
0.761999
20
4.905417
70
0
0
VERTEX
8
Layer 1
10
0.846294
20
3.966396
70
0
0
VERTEX
8
Layer 1
10
1.099012
20
3.153878
70
0
0
VERTEX
8
Layer 1
10
1.519905
20
2.468360
70
0
0
VERTEX
8
Layer 1
10
2.108727
20
1.910338
70
0
0
VERTEX
8
Layer 1
10
3.618834
20
1.186372
70
0
0
VERTEX
8
Layer 1
10
5.410722
20
0.944610
70
0
0
VERTEX
8
Layer 1
10
10.234070
20
0.944610
70
0
0
VERTEX
8
Layer 1
10
11.376738
20
1.046143
70
0
0
VERTEX
8
Layer 1
10
12.469797
20
1.352067
70
0
0
VERTEX
8
Layer 1
10
13.453715
20
1.891817
70
0
0
VERTEX
8
Layer 1
10
14.221336
20
2.645878
70
0
0
VERTEX
8
Layer 1
10
14.735619
20
3.636080
70
0
0
VERTEX
8
Layer 1
10
14.906606
20
4.828688
70
0
0
VERTEX
8
Layer 1
10
14.906606
20
5.286417
70
0
0
VERTEX
8
Layer 1
10
14.824213
20
6.213119
70
0
0
VERTEX
8
Layer 1
10
14.576870
20
7.012821
70
0
0
VERTEX
8
Layer 1
10
14.164327
20
7.685523
70
0
0
VERTEX
8
Layer 1
10
13.586337
20
8.231225
70
0
0
VERTEX
8
Layer 1
10
12.870971
20
8.653359
70
0
0
VERTEX
8
Layer 1
10
12.018683
20
8.955191
70
0
0
VERTEX
8
Layer 1
10
9.903342
20
9.196953
70
0
0
VERTEX
8
Layer 1
10
4.291536
20
9.196953
70
0
0
VERTEX
8
Layer 1
10
4.291536
20
9.932494
70
0
0
VERTEX
8
Layer 1
10
13.305879
20
17.272027
70
0
0
VERTEX
8
Layer 1
10
13.305879
20
17.399026
70
0
0
VERTEX
8
Layer 1
10
0.507999
20
17.399026
70
0
0
VERTEX
8
Layer 1
10
0.507999
20
18.134567
70
0
0
VERTEX
8
Layer 1
10
14.649961
20
18.134567
70
0
0
VERTEX
8
Layer 1
10
14.649961
20
17.372568
70
0
0
VERTEX
8
Layer 1
10
5.638264
20
10.059494
70
0
0
VERTEX
8
Layer 1
10
5.638264
20
9.678494
70
0
0
VERTEX
8
Layer 1
10
5.003265
20
9.906036
70
0
0
VERTEX
8
Layer 1
10
9.980071
20
9.906036
70
0
0
VERTEX
8
Layer 1
10
11.251020
20
9.831581
70
0
0
VERTEX
8
Layer 1
10
12.372893
20
9.608049
70
0
0
VERTEX
8
Layer 1
10
13.345442
20
9.235194
70
0
0
VERTEX
8
Layer 1
10
14.168420
20
8.712766
70
0
0
VERTEX
8
Layer 1
10
14.823221
20
8.060900
70
0
0
VERTEX
8
Layer 1
10
15.291244
20
7.272112
70
0
0
VERTEX
8
Layer 1
10
15.572239
20
6.346402
70
0
0
VERTEX
8
Layer 1
10
15.665959
20
5.283771
70
0
0
VERTEX
8
Layer 1
10
15.665959
20
4.852501
70
0
0
VERTEX
8
Layer 1
10
15.475460
20
3.462448
70
0
0
VERTEX
8
Layer 1
10
14.903960
20
2.288691
70
0
0
VERTEX
8
Layer 1
10
14.040097
20
1.374557
70
0
0
VERTEX
8
Layer 1
10
12.922234
20
0.714422
70
0
0
VERTEX
8
Layer 1
10
11.626438
20
0.333423
70
0
0
VERTEX
8
Layer 1
10
10.231425
20
0.206423
70
0
0
VERTEX
8
Layer 1
10
5.381618
20
0.206423
70
0
0
VERTEX
8
Layer 1
10
5.384264
20
0.209069
70
0
0
SEQEND
8
Layer 1
0
POLYLINE
8
Layer 1
62
7
70
1
10
0.000000
20
0.000000
66
1
0
VERTEX
8
Layer 1
10
67.492477
20
0.082069
70
0
0
VERTEX
8
Layer 1
10
65.613938
20
0.228582
70
0
0
VERTEX
8
Layer 1
10
63.989399
20
0.666797
70
0
0
VERTEX
8
Layer 1
10
62.655570
20
1.408953
70
0
0
VERTEX
8
Layer 1
10
61.653131
20
2.468608
70
0
0
VERTEX
8
Layer 1
10
61.024415
20
3.845762
70
0
0
VERTEX
8
Layer 1
10
60.814403
20
5.540416
70
0
0
VERTEX
8
Layer 1
10
60.814403
20
6.125145
70
0
0
VERTEX
8
Layer 1
10
66.502937
20
6.125145
70
0
0
VERTEX
8
Layer 1
10
66.502937
20
5.540416
70
0
0
VERTEX
8
Layer 1
10
66.629937
20
4.905417
70
0
0
VERTEX
8
Layer 1
10
67.037395
20
4.601147
70
0
0
VERTEX
8
Layer 1
10
67.799394
20
4.524418
70
0
0
VERTEX
8
Layer 1
10
72.318471
20
4.524418
70
0
0
VERTEX
8
Layer 1
10
73.080470
20
4.624959
70
0
0
VERTEX
8
Layer 1
10
73.511741
20
4.979500
70
0
0
VERTEX
8
Layer 1
10
73.665199
20
5.564229
70
0
0
VERTEX
8
Layer 1
10
73.665199
20
5.945228
70
0
0
VERTEX
8
Layer 1
10
73.576233
20
6.396012
70
0
0
VERTEX
8
Layer 1
10
73.310658
20
6.733686
70
0
0
VERTEX
8
Layer 1
10
72.891294
20
6.943368
70
0
0
VERTEX
8
Layer 1
10
72.344930
20
7.014144
70
0
0
VERTEX
8
Layer 1
10
64.066128
20
7.014144
70
0
0
VERTEX
8
Layer 1
10
64.066128
20
10.670681
70
0
0
VERTEX
8
Layer 1
10
68.815392
20
13.006949
70
0
0
VERTEX
8
Layer 1
10
68.815392
20
13.414406
70
0
0
VERTEX
8
Layer 1
10
61.655776
20
13.414406
70
0
0
VERTEX
8
Layer 1
10
61.655776
20
18.134567
70
0
0
VERTEX
8
Layer 1
10
78.237193
20
18.134567
70
0
0
VERTEX
8
Layer 1
10
78.237193
20
13.512302
70
0
0
VERTEX
8
Layer 1
10
73.032845
20
10.898222
70
0
0
VERTEX
8
Layer 1
10
73.032845
20
9.858411
70
0
0
VERTEX
8
Layer 1
10
68.005768
20
10.519868
70
0
0
VERTEX
8
Layer 1
10
74.099115
20
10.519868
70
0
0
VERTEX
8
Layer 1
10
75.264479
20
10.443511
70
0
0
VERTEX
8
Layer 1
10
76.296146
20
10.214606
70
0
0
VERTEX
8
Layer 1
10
77.194364
20
9.833400
70
0
0
VERTEX
8
Layer 1
10
77.959381
20
9.300141
70
0
0
VERTEX
8
Layer 1
10
78.580986
20
8.625909
70
0
0
VERTEX
8
Layer 1
10
79.024989
20
7.821453
70
0
0
VERTEX
8
Layer 1
10
79.291391
20
6.886524
70
0
0
VERTEX
8
Layer 1
10
79.380192
20
5.820874
70
0
0
VERTEX
8
Layer 1
10
79.380192
20
5.466333
70
0
0
VERTEX
8
Layer 1
10
79.183408
20
3.854030
70
0
0
VERTEX
8
Layer 1
10
78.591734
20
2.521524
70
0
0
VERTEX
8
Layer 1
10
77.627329
20
1.467492
70
0
0
VERTEX
8
Layer 1
10
76.305737
20
0.693256
70
0
0
VERTEX
8
Layer 1
10
74.642172
20
0.236189
70
0
0
VERTEX
8
Layer 1
10
72.649200
20
0.084715
70
0
0
VERTEX
8
Layer 1
10
67.495123
20
0.084715
70
0
0
VERTEX
8
Layer 1
10
67.492477
20
0.082069
70
0
0
SEQEND
8
Layer 1
0
POLYLINE
8
Layer 1
62
7
70
1
10
0.000000
20
0.000000
66
1
0
VERTEX
8
Layer 1
10
46.264983
20
0.082069
70
0
0
VERTEX
8
Layer 1
10
44.388263
20
0.206051
70
0
0
VERTEX
8
Layer 1
10
42.742722
20
0.577831
70
0
0
VERTEX
8
Layer 1
10
41.328361
20
1.197162
70
0
0
VERTEX
8
Layer 1
10
40.145179
20
2.063796
70
0
0
VERTEX
8
Layer 1
10
39.222983
20
3.204272
70
0
0
VERTEX
8
Layer 1
10
38.563964
20
4.621321
70
0
0
VERTEX
8
Layer 1
10
38.168372
20
6.314694
70
0
0
VERTEX
8
Layer 1
10
38.036452
20
8.284142
70
0
0
VERTEX
8
Layer 1
10
38.036452
20
10.162681
70
0
0
VERTEX
8
Layer 1
10
38.167999
20
12.142589
70
0
0
VERTEX
8
Layer 1
10
38.562972
20
13.843692
70
0
0
VERTEX
8
Layer 1
10
39.221867
20
15.265991
70
0
0
VERTEX
8
Layer 1
10
40.145179
20
16.409486
70
0
0
VERTEX
8
Layer 1
10
41.326872
20
17.286537
70
0
0
VERTEX
8
Layer 1
10
42.740738
20
17.913310
70
0
0
VERTEX
8
Layer 1
10
44.386775
20
18.289555
70
0
0
VERTEX
8
Layer 1
10
46.264983
20
18.415025
70
0
0
VERTEX
8
Layer 1
10
52.358330
20
18.415025
70
0
0
VERTEX
8
Layer 1
10
54.631098
20
18.212288
70
0
0
VERTEX
8
Layer 1
10
56.522866
20
17.602755
70
0
0
VERTEX
8
Layer 1
10
58.052817
20
16.560960
70
0
0
VERTEX
8
Layer 1
10
59.189863
20
15.062758
70
0
0
VERTEX
8
Layer 1
10
59.601165
20
14.139074
70
0
0
VERTEX
8
Layer 1
10
59.894646
20
13.094592
70
0
0
VERTEX
8
Layer 1
10
60.129133
20
10.644222
70
0
0
VERTEX
8
Layer 1
10
60.129133
20
10.009223
70
0
0
VERTEX
8
Layer 1
10
54.213057
20
10.009223
70
0
0
VERTEX
8
Layer 1
10
54.213057
20
10.644222
70
0
0
VERTEX
8
Layer 1
10
53.985515
20
12.268762
70
0
0
VERTEX
8
Layer 1
10
53.719279
20
12.770478
70
0
0
VERTEX
8
Layer 1
10
53.324058
20
13.107490
70
0
0
VERTEX
8
Layer 1
10
52.809775
20
13.317172
70
0
0
VERTEX
8
Layer 1
10
52.130788
20
13.387948
70
0
0
VERTEX
8
Layer 1
10
46.595712
20
13.387948
70
0
0
VERTEX
8
Layer 1
10
45.536057
20
13.197448
70
0
0
VERTEX
8
Layer 1
10
44.793902
20
12.625949
70
0
0
VERTEX
8
Layer 1
10
44.374869
20
11.647653
70
0
0
VERTEX
8
Layer 1
10
44.235632
20
10.189140
70
0
0
VERTEX
8
Layer 1
10
44.235632
20
8.233871
70
0
0
VERTEX
8
Layer 1
10
44.374869
20
6.811407
70
0
0
VERTEX
8
Layer 1
10
44.793902
20
5.847333
70
0
0
VERTEX
8
Layer 1
10
45.536057
20
5.295016
70
0
0
VERTEX
8
Layer 1
10
46.595712
20
5.111792
70
0
0
VERTEX
8
Layer 1
10
52.130788
20
5.111792
70
0
0
VERTEX
8
Layer 1
10
52.809775
20
5.175292
70
0
0
VERTEX
8
Layer 1
10
53.324058
20
5.365792
70
0
0
VERTEX
8
Layer 1
10
53.717294
20
5.702804
70
0
0
VERTEX
8
Layer 1
10
53.985515
20
6.204520
70
0
0
VERTEX
8
Layer 1
10
54.213057
20
7.829059
70
0
0
VERTEX
8
Layer 1
10
54.213057
20
8.337059
70
0
0
VERTEX
8
Layer 1
10
60.129133
20
8.337059
70
0
0
VERTEX
8
Layer 1
10
60.129133
20
7.855518
70
0
0
VERTEX
8
Layer 1
10
59.894646
20
5.405148
70
0
0
VERTEX
8
Layer 1
10
59.601165
20
4.360666
70
0
0
VERTEX
8
Layer 1
10
59.189863
20
3.436981
70
0
0
VERTEX
8
Layer 1
10
58.072992
20
1.938780
70
0
0
VERTEX
8
Layer 1
10
57.361884
20
1.360832
70
0
0
VERTEX
8
Layer 1
10
56.549325
20
0.896985
70
0
0
VERTEX
8
Layer 1
10
54.638705
20
0.287452
70
0
0
VERTEX
8
Layer 1
10
52.360976
20
0.084715
70
0
0
VERTEX
8
Layer 1
10
46.267629
20
0.084715
70
0
0
VERTEX
8
Layer 1
10
46.264983
20
0.082069
70
0
0
SEQEND
8
Layer 1
 0 
ENDSEC
 0 
EOF